<svg xmlns="http://www.w3.org/2000/svg" xmlns:xlink="http://www.w3.org/1999/xlink" width="500" zoomAndPan="magnify" viewBox="0 0 375 374.999991" height="500" preserveAspectRatio="xMidYMid meet" version="1.0"><rect x="-37.5" width="450" fill="#ffffff" y="-37.499999" height="449.999989" fill-opacity="1"/><path fill="#ff6f61" d="M 195.863281 145.832031 C 195.863281 147.609375 195.777344 149.378906 195.601562 151.144531 C 195.429688 152.910156 195.167969 154.660156 194.824219 156.402344 C 194.476562 158.140625 194.046875 159.859375 193.53125 161.558594 C 193.015625 163.253906 192.417969 164.921875 191.738281 166.5625 C 191.0625 168.199219 190.304688 169.804688 189.464844 171.367188 C 188.628906 172.933594 187.71875 174.453125 186.734375 175.925781 C 185.746094 177.402344 184.691406 178.824219 183.566406 180.195312 C 182.441406 181.566406 181.25 182.878906 179.996094 184.136719 C 178.742188 185.390625 177.429688 186.578125 176.058594 187.703125 C 174.683594 188.832031 173.261719 189.886719 171.785156 190.871094 C 170.3125 191.855469 168.792969 192.769531 167.226562 193.605469 C 165.660156 194.441406 164.058594 195.199219 162.421875 195.875 C 160.78125 196.554688 159.113281 197.152344 157.414062 197.667969 C 155.714844 198.183594 153.996094 198.613281 152.257812 198.960938 C 150.515625 199.304688 148.765625 199.566406 147 199.738281 C 145.234375 199.914062 143.460938 200 141.6875 200 C 139.914062 200 138.144531 199.914062 136.378906 199.738281 C 134.613281 199.566406 132.859375 199.304688 131.121094 198.960938 C 129.378906 198.613281 127.660156 198.183594 125.960938 197.667969 C 124.265625 197.152344 122.597656 196.554688 120.957031 195.875 C 119.316406 195.199219 117.714844 194.441406 116.152344 193.605469 C 114.585938 192.769531 113.066406 191.855469 111.589844 190.871094 C 110.113281 189.886719 108.691406 188.832031 107.320312 187.703125 C 105.949219 186.578125 104.636719 185.390625 103.382812 184.136719 C 102.125 182.878906 100.9375 181.566406 99.8125 180.195312 C 98.683594 178.824219 97.628906 177.402344 96.644531 175.925781 C 95.65625 174.453125 94.746094 172.933594 93.910156 171.367188 C 93.074219 169.804688 92.316406 168.199219 91.636719 166.5625 C 90.957031 164.921875 90.359375 163.253906 89.847656 161.558594 C 89.332031 159.859375 88.902344 158.140625 88.554688 156.402344 C 88.207031 154.660156 87.949219 152.910156 87.773438 151.144531 C 87.601562 149.378906 87.511719 147.609375 87.511719 145.832031 C 87.511719 144.058594 87.601562 142.289062 87.773438 140.523438 C 87.949219 138.757812 88.207031 137.007812 88.554688 135.265625 C 88.902344 133.527344 89.332031 131.808594 89.847656 130.109375 C 90.359375 128.414062 90.957031 126.742188 91.636719 125.105469 C 92.316406 123.464844 93.074219 121.863281 93.910156 120.300781 C 94.746094 118.734375 95.65625 117.214844 96.644531 115.742188 C 97.628906 114.265625 98.683594 112.84375 99.8125 111.472656 C 100.9375 110.097656 102.125 108.785156 103.382812 107.53125 C 104.636719 106.277344 105.949219 105.085938 107.320312 103.960938 C 108.691406 102.835938 110.113281 101.78125 111.589844 100.796875 C 113.066406 99.808594 114.585938 98.898438 116.152344 98.0625 C 117.714844 97.226562 119.316406 96.46875 120.957031 95.789062 C 122.597656 95.113281 124.265625 94.515625 125.960938 94 C 127.660156 93.484375 129.378906 93.054688 131.121094 92.707031 C 132.859375 92.363281 134.613281 92.101562 136.378906 91.929688 C 138.144531 91.753906 139.914062 91.667969 141.6875 91.667969 C 143.460938 91.667969 145.234375 91.753906 147 91.929688 C 148.765625 92.101562 150.515625 92.363281 152.257812 92.707031 C 153.996094 93.054688 155.714844 93.484375 157.414062 94 C 159.113281 94.515625 160.78125 95.113281 162.421875 95.789062 C 164.058594 96.46875 165.660156 97.226562 167.226562 98.0625 C 168.792969 98.898438 170.3125 99.808594 171.785156 100.796875 C 173.261719 101.78125 174.683594 102.835938 176.058594 103.960938 C 177.429688 105.085938 178.742188 106.277344 179.996094 107.53125 C 181.25 108.785156 182.441406 110.097656 183.566406 111.472656 C 184.691406 112.84375 185.746094 114.265625 186.734375 115.742188 C 187.71875 117.214844 188.628906 118.734375 189.464844 120.300781 C 190.304688 121.863281 191.0625 123.464844 191.738281 125.105469 C 192.417969 126.742188 193.015625 128.414062 193.53125 130.109375 C 194.046875 131.808594 194.476562 133.527344 194.824219 135.265625 C 195.167969 137.007812 195.429688 138.757812 195.601562 140.523438 C 195.777344 142.289062 195.863281 144.058594 195.863281 145.832031 Z M 195.863281 145.832031 " fill-opacity="1" fill-rule="nonzero"/><path stroke-linecap="round" transform="matrix(2.083654, 0, 0, 2.083323, 0.0000045, 0.000901442)" fill="none" stroke-linejoin="miter" d="M 29.999133 120.000158 C 50.000432 104.000704 69.999855 104.000704 89.999279 120.000158 C 110.000577 135.999612 130.000001 135.999612 149.999424 120.000158 " stroke="#10b3a5" stroke-width="14" stroke-opacity="1" stroke-miterlimit="4"/></svg>